<?xml version="1.0" encoding="UTF-8"?>
<svg width="80px" height="40px" viewBox="0 0 80 40" version="1.1" xmlns="http://www.w3.org/2000/svg" xmlns:xlink="http://www.w3.org/1999/xlink">
    <!-- Generator: Sketch 47.1 (45422) - http://www.bohemiancoding.com/sketch -->
    <title>Monogram</title>
    <desc>Created with Sketch.</desc>
    <defs></defs>
    <g id="New-" stroke="none" stroke-width="1" fill="none" fill-rule="evenodd">
        <g id="Desktop-HD" transform="translate(-237.000000, -36.000000)">
            <g id="Head">
                <g id="Header" transform="translate(237.000000, 36.000000)">
                    <g id="Monogram" transform="translate(0.000000, 0.000000)">
                        <g id="Group-3" stroke-width="1" fill-rule="evenodd" transform="translate(20.000000, 10.000000)" fill="#FAFAFA">
                            <polygon id="Triangle" points="10 0 20 20 0 20"></polygon>
                            <path d="M20,0 L40,0 L40,20 L20,20 L20,0 Z M20,0 L20,6.25 L26.25,6.25 L26.25,0 L20,0 Z M33.75,0 L33.75,6.25 L40,6.25 L40,0 L33.75,0 Z M33.75,13.75 L33.75,20 L40,20 L40,13.75 L33.75,13.75 Z M20,13.75 L20,20 L26.25,20 L26.25,13.75 L20,13.75 Z" id="Rectangle"></path>
                        </g>
                        <rect id="Rectangle-2" stroke="#FAFAFA" stroke-width="2" x="1" y="1" width="78" height="38"></rect>
                    </g>
                </g>
            </g>
        </g>
    </g>
</svg>