<?xml version="1.0" encoding="UTF-8"?>
<svg width="64px" height="32px" viewBox="0 0 64 32" version="1.1" xmlns="http://www.w3.org/2000/svg" xmlns:xlink="http://www.w3.org/1999/xlink">
    <!-- Generator: Sketch 47.1 (45422) - http://www.bohemiancoding.com/sketch -->
    <title>monogram-black</title>
    <desc>Created with Sketch.</desc>
    <defs></defs>
    <g id="Symbols" stroke="none" stroke-width="1" fill="none" fill-rule="evenodd">
        <g id="monogram-black">
            <g id="Group-3" transform="translate(16.000000, 8.000000)" fill="#333333">
                <polygon id="Triangle" points="8 0 16 16 0 16"></polygon>
                <path d="M16,0 L32,0 L32,16 L16,16 L16,0 Z M16,0 L16,5 L21,5 L21,0 L16,0 Z M27,0 L27,5 L32,5 L32,0 L27,0 Z M27,11 L27,16 L32,16 L32,11 L27,11 Z M16,11 L16,16 L21,16 L21,11 L16,11 Z" id="Rectangle"></path>
            </g>
            <rect id="Rectangle-2" stroke="#333333" stroke-width="2" x="1" y="1" width="62" height="30"></rect>
        </g>
    </g>
</svg>